<?xml version="1.0" standalone="no"?><!DOCTYPE svg PUBLIC "-//W3C//DTD SVG 1.1//EN" "http://www.w3.org/Graphics/SVG/1.1/DTD/svg11.dtd"><svg t="1514883553128" class="icon" style="" viewBox="0 0 1024 1024" version="1.1" xmlns="http://www.w3.org/2000/svg" p-id="18039" xmlns:xlink="http://www.w3.org/1999/xlink" width="30" height="30"><defs><style type="text/css"></style></defs><path d="M214.217896 487.181755h595.563184v49.634444H214.217896z" fill="#8a8a8a" p-id="18040"></path><path d="M809.804616 65.290005H214.193337c-82.236979 0-148.902308 66.665329-148.902308 148.902309v595.612302c0 82.238003 66.665329 148.904355 148.902308 148.904355h595.612303c82.236979 0 148.904355-66.667376 148.904355-148.904355V214.193337C958.708971 131.955334 892.042619 65.290005 809.804616 65.290005zM941.52766 798.351773c0 79.074963-64.101947 143.17691-143.17691 143.176911H225.64618c-79.072917 0-143.174863-64.101947-143.174864-143.176911V225.64618c0-79.072917 64.101947-143.174863 143.174864-143.174864h572.70457c79.074963 0 143.17691 64.101947 143.17691 143.174864v572.705593z" fill="#8a8a8a" p-id="18041"></path></svg>